<?xml version="1.0" encoding="utf-8"?>
<!-- Generator: Adobe Illustrator 23.1.0, SVG Export Plug-In . SVG Version: 6.00 Build 0)  -->
<svg version="1.1" id="Capa_1" xmlns="http://www.w3.org/2000/svg" xmlns:xlink="http://www.w3.org/1999/xlink" x="0px" y="0px"
	 viewBox="0 0 48 48" style="enable-background:new 0 0 48 48;" xml:space="preserve">
<style type="text/css">
	.st0{fill:#3F51B5;}
	.st1{fill:#FFFFFF;}
</style>
<path class="st0" d="M44,38.4c0,3.1-2.5,5.6-5.6,5.6H9.6C6.5,44,4,41.5,4,38.4V9.6C4,6.5,6.5,4,9.6,4h28.9C41.5,4,44,6.5,44,9.6
	V38.4z"/>
<path class="st1" d="M36,25.1h-3.9v14.4h-5.8V25.1h-3.5v-4.4h3.5V18c0-3.9,1.7-6.2,6.4-6.2h3.9v4.4H34c-1.9,0-2,0.7-2,1.9v2.5h4.6
	L36,25.1z"/>
</svg>
