<?xml version="1.0" encoding="utf-8"?>
<!-- Generator: Adobe Illustrator 23.1.0, SVG Export Plug-In . SVG Version: 6.00 Build 0)  -->
<svg version="1.1" id="Capa_1" xmlns="http://www.w3.org/2000/svg" xmlns:xlink="http://www.w3.org/1999/xlink" x="0px" y="0px"
	 viewBox="0 0 48 48" style="enable-background:new 0 0 48 48;" xml:space="preserve">
<style type="text/css">
	.st0{fill:#0288D1;}
	.st1{fill:#FFFFFF;}
</style>
<path class="st0" d="M44,38.4c0,3.1-2.5,5.6-5.6,5.6H9.6C6.5,44,4,41.5,4,38.4V9.6C4,6.5,6.5,4,9.6,4h28.9C41.5,4,44,6.5,44,9.6
	V38.4z"/>
<path class="st1" d="M10.7,18.4h5.6v18.9h-5.6V18.4z M13.4,16.2L13.4,16.2c-1.7,0-2.8-1.2-2.8-2.8c0-1.6,1.1-2.8,2.8-2.8
	c1.7,0,2.7,1.2,2.8,2.8C16.2,15,15.1,16.2,13.4,16.2z M37.3,37.3h-5.6V27.2c0-2.4-1.4-4.1-3.5-4.1c-1.7,0-2.6,1.1-3,2.2
	c-0.2,0.4-0.1,1.5-0.1,2v10h-5.6V18.4h5.6v2.9c0.8-1.2,2.1-2.9,5.3-2.9c4,0,7,2.5,7,8.1L37.3,37.3L37.3,37.3z"/>
</svg>
